<mxfile host="app.diagrams.net" modified="2024-01-27T20:59:24.210Z" agent="Mozilla/5.0 (Windows NT 10.0; Win64; x64) AppleWebKit/537.36 (KHTML, like Gecko) Chrome/121.0.0.0 Safari/537.36" etag="7BiajDPnRa9Ner4an08d" version="23.0.2" type="github">
  <diagram name="PÃ¡gina-1" id="QAvefMj2WyP5_Jrj0Ntx">
    <mxGraphModel dx="2647" dy="1427" grid="1" gridSize="10" guides="1" tooltips="1" connect="1" arrows="1" fold="1" page="1" pageScale="1" pageWidth="827" pageHeight="1169" math="0" shadow="0">
      <root>
        <mxCell id="0" />
        <mxCell id="1" parent="0" />
        <mxCell id="B2qJIxrfHfIfx7iepTMr-2" value="&lt;font style=&quot;&quot;&gt;&lt;font style=&quot;font-size: 50px;&quot; face=&quot;Verdana&quot;&gt;&lt;i&gt;&lt;u&gt;Components and Features Diagram of Salty.IO&lt;/u&gt;&lt;/i&gt;&lt;/font&gt;&lt;br&gt;&lt;/font&gt;" style="text;html=1;strokeColor=none;fillColor=none;align=center;verticalAlign=middle;whiteSpace=wrap;rounded=0;fontColor=#2B2B2B;" vertex="1" parent="1">
          <mxGeometry x="636" y="110" width="1210" height="70" as="geometry" />
        </mxCell>
        <mxCell id="B2qJIxrfHfIfx7iepTMr-3" value="" style="endArrow=none;html=1;rounded=0;" edge="1" parent="1">
          <mxGeometry relative="1" as="geometry">
            <mxPoint y="59.870000000000005" as="sourcePoint" />
            <mxPoint x="2470" y="56" as="targetPoint" />
          </mxGeometry>
        </mxCell>
        <mxCell id="B2qJIxrfHfIfx7iepTMr-4" value="" style="resizable=0;html=1;whiteSpace=wrap;align=right;verticalAlign=bottom;" connectable="0" vertex="1" parent="B2qJIxrfHfIfx7iepTMr-3">
          <mxGeometry x="1" relative="1" as="geometry" />
        </mxCell>
        <mxCell id="B2qJIxrfHfIfx7iepTMr-10" value="&lt;h1 style=&quot;border: none; background-image: none; background-position: initial; background-size: initial; background-repeat: initial; background-attachment: initial; background-origin: initial; background-clip: initial; box-sizing: border-box; margin: 0.25em 0px 0.25rem; padding: 0px; vertical-align: baseline; line-height: 28.8px; text-align: start;&quot; class=&quot;type__headline__xs&quot;&gt;&lt;font style=&quot;border-color: var(--border-color); font-size: 37px; font-weight: normal;&quot; face=&quot;Verdana&quot;&gt;&amp;nbsp; &amp;nbsp; &amp;nbsp; &amp;nbsp; &amp;nbsp; &amp;nbsp; &amp;nbsp; &amp;nbsp; &amp;nbsp; &amp;nbsp; &amp;nbsp; &amp;nbsp; &amp;nbsp; &amp;nbsp; &amp;nbsp; &amp;nbsp; &amp;nbsp; &amp;nbsp; Salty.IO&lt;/font&gt;&lt;/h1&gt;&lt;div style=&quot;font-size: 33px;&quot;&gt;&lt;/div&gt;&lt;font style=&quot;font-size: 33px;&quot;&gt;&lt;font color=&quot;#b3b3b3&quot;&gt;An Ethereum-based DEX with zero swap fees, yield-generating Automatic Arbitrage, and a native WBTC/WETH backed stablecoin resume esto &lt;/font&gt;&lt;br&gt;&lt;/font&gt;" style="text;html=1;strokeColor=none;fillColor=none;align=center;verticalAlign=middle;whiteSpace=wrap;rounded=0;fontSize=11;fontFamily=Helvetica;fontColor=default;" vertex="1" parent="1">
          <mxGeometry x="683" y="2380" width="1115" height="130" as="geometry" />
        </mxCell>
        <mxCell id="B2qJIxrfHfIfx7iepTMr-11" value="&lt;font style=&quot;font-size: 20px;&quot;&gt;Made by Catellatech C4 Wardens&lt;/font&gt;" style="text;html=1;strokeColor=none;fillColor=none;align=center;verticalAlign=middle;whiteSpace=wrap;rounded=0;" vertex="1" parent="1">
          <mxGeometry x="1083.75" y="2510" width="314.5" height="50" as="geometry" />
        </mxCell>
        <mxCell id="B2qJIxrfHfIfx7iepTMr-12" value="" style="endArrow=none;html=1;rounded=0;" edge="1" parent="1">
          <mxGeometry relative="1" as="geometry">
            <mxPoint x="6.0000000000000036" y="2563.87" as="sourcePoint" />
            <mxPoint x="2476" y="2560" as="targetPoint" />
          </mxGeometry>
        </mxCell>
        <mxCell id="B2qJIxrfHfIfx7iepTMr-13" value="" style="resizable=0;html=1;whiteSpace=wrap;align=right;verticalAlign=bottom;" connectable="0" vertex="1" parent="B2qJIxrfHfIfx7iepTMr-12">
          <mxGeometry x="1" relative="1" as="geometry" />
        </mxCell>
        <mxCell id="B2qJIxrfHfIfx7iepTMr-28" value="&lt;div style=&quot;&quot;&gt;&lt;div style=&quot;line-height: 19px;&quot;&gt;&lt;img alt=&quot;Initial Dex Offering 3D Illustration download in PNG, OBJ or Blend format&quot; src=&quot;data:image/jpeg;base64,/9j/4AAQSkZJRgABAQAAAQABAAD/2wCEAAoHCBUSFBUUFRIYGRgYGBoYGBQYFREZFBkUGxgaGhkYFR0bIS0kHB0qIRgYJjclKi4xNDQ0GiM6PzoyPi0zNTMBCwsLEA8QHxISHzMqIyozMzMxMzMzMzMzMzEzMzMzMzMzNTMzMzM1MzMzMzMzNTMzMzMzMTMzMzMzMzMzMzMzM//AABEIAOEA4QMBIgACEQEDEQH/xAAbAAEAAgMBAQAAAAAAAAAAAAAABQYDBAcCAf/EAD8QAAIBAgMFBQUFBQgDAAAAAAABAgMRBCExBRJBUWEGInGBkRMyocHRFEJScrEjM2KSwgcVQ4KisuHwU3Px/8QAGgEBAAMBAQEAAAAAAAAAAAAAAAEDBAIFBv/EAC4RAAIBAgQDBwQDAQAAAAAAAAABAgMRBBIhMRNRgUFhcaHB0fAFIjKRFLHhI//aAAwDAQACEQMRAD8A7MAAAAAAAAAAAAAAAAAAAAAAAAAAAAAAAAAAAAAAAAAAAAAAAAAAAAAAAAAAAAAAAAAAAUjtBt2VRunTlaCybWs/Pl04/AprV40o3fRHcIOT0LDi9vYek7OpeS+7FOT+GS9TTj2toXzVRdXBfJlEqV4xveSy4XV/QxUsbCbsm9L5q2XD5evE8/8AmVpXcVp/jfoy/gwW7OqYHadKv+7mm+K0kvJm8cmjJwalFuMlpJZMu/Zrbft1uT/eRV7/AIo8115l+Gxud5ZHFSjlV0WIAG8oAAAAAAAAAAAAAAAAAAAAAAAAAAAAAAAAAIXtNi3SoO2s3u+Tu38FbzKBJXLl20vuUuV5f02KazxMdJus1yt7m2gvsInGYaHtKa3I5zSfdi75S1yz0RsS2dTt+7h/JD6GLHq86au1eSV02nnGS1WZ6ngXb95PT8dT5yGd5I3k1vz9CbavT+jNgJ2Tp291pr8k4qUV67z8JR4WN3D4h0pwqR1hLe8Vxj5q68zT2e1uW+9GTi+byUlN53u7tN8XFvK9lnkVV3/0fTroteu/i+ZMF9vz9HWKdRSSktGk0+jMhH7Cv9moX/8AHD/aiQPdpyzRT5pGFqzsAAdkAAAAAAAAAAAAAAAAAAAAAAA16+KhD3nnyWbJSb0QNgEVLa3Km34tL6n2G2I/ehKPVWkvhn8DvgztsRdEoDHSqxmrxaa5oyFZJEdosL7SjK2sc/KzT9L38jn01bI6wUntDsCUW6lNNxebitY/8deHxPNx1Bv749fnz20UJpfayl4tftKf51/tkb0tPI1a+zou73VvPi1DNWtm2uRrUNlWkt5Rajf7q7zfPw63Mn/OUV923dv28+7zRe8ye3z9GfAxanPxjn1Se8vFZJ8ndapklh8PKpOMI6yaS8+J4oULtQhG70jGK9FFL9EXjs7sT2C35rvtZLLup6+f6ebJp03XqabaeSt+zlyyR13JyjSUIxitIpJeCVjKYMTiIU4SnOSjGKu5PRIgp7SqVX3W6UeCsvatc5Xuo+GvU9apWhSWplhTc3oWQFM2jFxtuV619b+1m/mZdlbaqRlGnVmnd2jOSyb/AAyazT/iz8OJ1SqKauhKFi3A8xfNWPRYcAAAAAAAAAAAAAAAAAAGpjMRuKy1fwIacs7t6vV82ZsRU3nvc8/J6fCxp4qpCMf2jVnlazbfRJZvK+htpwyxK29TUlteivvr1j9TJhsZTqNxhJNpXteOi1tmQm1cTRaW7F6pxk3Fx3lJPLvN3snw4krHadFzmo3hvSaV91JpvK0VK/Lgcqo76tE5Ub1GrKnLfhrxjwkuT69SxYXERqRUo6P1T4p9SuyjY3th1LTnDg1vrx0l8ia8E1mQiybABjOyNxexqFXOVNXfFXTvzdsm/E012Xw97959N5W+CJ4FToU27uK/SOlOS2Zp4PZ9Oj7kIx66yfjJ5s3ACxJJWRy3cpu2NoqriJx3v2eHaSXCeJau2+ahFpL+KT/CiIx+1HTpzqJ9592P55Xs/JXfkRUN68pNvvyc3+ab3pX82zQ2xit6UYZ2ivWT1fwS8r8ScNg1iMQs+y1fTs69vdcvU8sbIybB2g4z9nKT3Ze7dt7skrbvg0vVdSyzipRsUKT8uvFdUW7ZWJlOlCclZuOfC/KXS+vmbvqVBKXFj27+PP3K0X7s/i3VoRcneUW4SfWOj9LPzJUrXY2d6dZcqn6wiWUwnLAABAAAAAAAAAAAAAPMtH4HoAFcjK8IPnBeqyfxRGbUwtSpuuEl3WpbrSabWmvi8voiUqQ3Jzpvm5w6wlnKK6xd/Jnhm5WnEr2ZUtqKrGD9rC6yu7xyzyasuGWrehJ4/Z1SrObqKMbyk2oqDWb5uKfnn4GXb8HKk1FXbaSS4slqr7z+PjZXK1SWdo6zaGClDdjGNsoxjFZ3dopLN8dDc2Sv2vhCV/WJrNknsahZSm/vZL8q4+bLKtowt0OVqyVMdSoopuTSS1baSXi2Ru3dsRwsN5renLKFO+cpfKK4s5/tLGVK73603J6qKuqcekY/PXmcYfCSra3suZYXuv2owkHZ4iL/ACqc16wTRsYHbmGru1OvCTf3b7s/5ZWfwOV0aMatOrUjPOk470LP3JS3VK+l97hyzvwPuEpqWTV/+8Davp9GaeST006/pf2SdmBSthbclScadaTnTk1GNSTvOEnklN/eg3lvPNcctLqebXoSpSs+jIOVYinuNxeq18bEPtSjdby4a/8AfQuXa3AOE3US7ss79W7u/W7fk1yZWamaaejyfgV0azpVFJfEdogcPQ9pUUOGs/yLh56FqhOyIvBYVU72d23m/DRfr6k/sfZ8qj3mu4nrzkuC5rn6cSzGYjjT02W3uCDrbZrUq3sqTd5Sit3nUmopf0ryOxUobsYxveySv4IqWzuydP7VHFO/dk57rzTqcH5Xv4pFxM6OWwADogAAAAAAAAAAAAAAA0toYFVopXcZRd4TXvRlz6rmuJB1KkoPdrR3JcJq/sp9Yy+6+jLSeJRTVmk0+D0O4VHEhq5XbXV9Vz1R4eRMvZVG9/ZRX5bx/Sxno4SnDOMIp87Z+rzL/wCT3EZCMwez3J3mrR5cZfREylbJHoFE5uT1JSsc12zi/tGLqu/dpfs4rgrNpvzkpeViPxMLpjZ1/aYpP3lUz85VPmmetoVPZ05zs3uxbstXZXse/TSjTSXIk0+zVNyqYyn+KlUau7Lei6E4/wBRsrCypVJQmrSi8/NJr4NPPPPOxu9nacMPWo96MsRiFOSS3rRpqlNwllk7umlFPhvPVrd1opyk5N3bzbfEy4Co5Snb8dPG79LIlm/TgpRcWrpqzXNMt3ZjFOpQ3ZO8qUnTberSScG+rjKN+typ0Cf7JPv4lcP2b/zOMk/gok42Oam+7XzsQWHEYeNSLjJXTKnjux7velJW5PJr5P4FyB4rVyUym4Tsoou81KfS+7Hztm/JosNDA2smkkskkksuSSySJECwbueYxSVloegCSAAAAAAAAAAAAAAAAAAAAAAAAAAADme2sJ9lx828oYjvJ8N6Tvd+E7rop3FSJdtv7Hhi6ThLKSzhK17Przi+K+hR6kamHl7PERaa92prGUed+Pj62Z6uExKayyOrXI2ivY47DVnlGLs3klndWzyTanLXlbVotK2RRjnPGUYrleN7ecl+hGJJ8mfe7HkvRF8sPPO5Qm1ffRPYi5v4yjRgo+zrKprvNOLStbitCc7J4dxpSqNZ1Zua/wDWkow9VG/+YhtmbHniGnOLjR1d7qVRfhitVF8Xx4F0jFJJJWSySXBdDJiqijDhXu+1+nzaxB7AB5wAAAAAAAAAAAAAAAAAAAAAAB4nJJNt2S1b08wD2CDxXaCEcoJy6vKPlxZGV+0NWWjjHwWfxuUuvBF8cPN93iW88b65r1KBWx85+9OT8W2Yni3zK3ieS8y1YXnLyOjGrW2hSh71SC6byb9Ec+ninzNeeIDxD5BYVc/IvVTtFRWm9LwjZfExf31RrLdnTvHlJRkvQoksQfKOKaepw60+w7VCmX2lsDCT70aduaUpr1VzdwuyKFJ3hSinwbvKS8HK7REbCxl7Z/8Aws6ZqpYmc45W34XdjLWhkdj6ADsqAAAAAAAAAAAAAAAAAABqYvaFKl+8qRj0bz9FmbFSVk3yTZyieHqVHvyk25d9t8d7O/xNeFwyrN3dkgXHG9s6MLqEZTfN92P1+BAY3thiJ5QtBfwrP1d/gRv2NLVmGo4RPWp4OhDsv4gkdj9palOopVJzkm0nFybun4vUmdqbYlWy92H4U9esnxOf4qslNNfii/iWJ1rpHh/WHatZaKyNmHjG2btM86phnWMEqhrzqHkWNNzYnXMMq5rymeGybHNzNKuePamK1z3GmybC4lM+QeZtUcBOfuwk+qWXroSGH2HN+84x87v0WXxDkkSot7G5sGu00uNzoNNWST1SX6FX2NRpYd3a3pfjfDwWiLDTx9KWlRLxaX6lmHcdXcz4hSdtHY2weITT0afg0z2bDGAAAAAAAAAAAAAAAAAAeZK6aOUfa5bkI2zhFU5fmh3X+h1k43t2bo4nE0uVac1+Wdppekken9N/KS8Pb1B9qTk9WalSpFcTTqYhvia8nc9ezJPWNnvJ24IlsJid6EX0IeOT/XweTNvZ2UbcsjwvrFPSM+nr7mjDy7CRlMxuR8sfVE8M0nk9xhc+qBmhkAbOFwW8TOFw1OGdk31s/QjKFexmliiqVyyNkb+KxhrxxfUjata5jVRkZSziEhXx7XE1f7yfM0qzbNSbZOU5zk9T2s1xN6lt+otKkv5mVHeZ6jNkqNtjlzvuXmj2in+P4Jknhtut62fl9DnMK7RvYXGNPU6zSWzZy4Qe8UdMw+PjPVW+KN1MpuysXe2ZOKru2aepZHEyX5Gaph1f7SXBhoVd5dTMa4yUldGVqzsAAdEAAAAAAA5d/aNgt3FwqpZVKa85wdn/AKXA6iVT+0HAe0wyqJd6lJS67ku7Jeri/wDKacJUyVU+n7By7cPqgbEaZ7jSPfbBrKBtYSn3n1z89H8j3GibNDDu6trw69DDjocSjKK33XT/AC53TllkelSPvsy5YPsi7XqVLfwwV/8AU/ob8OymHXGb8ZL5I+aVGRqdeCOf+zG6dCfZbD/x/wA3/Bhl2So8JVF5wa/2jgyHHgURI+3LnLsdHhWa8Yp/NHyHY+PGs/KCX9TOeDPkTxocymbp6US8R7JUuNSb8NxfJmxDsxh1qpS8Zv5WJ4MiOPBHP5UGzE8OdLj2fwy/wvWVR/1GWexcO1b2MPJWfqszrgSI/kR5M5Y8MfPs3Q6bLs1hn/hW8J1Pqa8+ydB6OcfCS+aZHBmTx4d5zl4cRg0X6fY+nwqzXiov6GN9jVwrvzgn/URwp8ieNDmV3ZtWzROy2gm4xT0zf0Ps+x8l7tdPxg1+jZ9w/ZWafeqxS6KTfo7HDoz5HarU+ZNbJq71/AlTWweEjSjux829WzZNVGDhGzMVWSlK6AALSsAAAAAAGHE0I1IShJXjKLi10aszMADkeK2ZKjUlTks4u1+a4SXRrM3cFsGtU92nK3N92PqzpcqcW03FNrR2V14GQ3PHTtsCnYPsc9ak0ukFd+rJzB7CoUmnGF5LSUnd358vgSoM0605bsAAFQAAAAAAAAAAAAAAAAAAAAAAAAAAAAAAAAAAAAAAAAAAAAAAAAAAAAAAAAAAAAAAAAAAAAAAAAAAAAAAAAAAAAAAAAAAAAAAAAAAAAAAAAAAAAAAAAAAAAAAAAP/2Q==&quot;&gt;&lt;br&gt;&lt;/div&gt;&lt;/div&gt;" style="text;html=1;strokeColor=none;fillColor=none;align=center;verticalAlign=middle;whiteSpace=wrap;rounded=0;" vertex="1" parent="1">
          <mxGeometry x="1258.35" y="1150" width="221" height="240" as="geometry" />
        </mxCell>
        <mxCell id="B2qJIxrfHfIfx7iepTMr-29" value="&lt;font size=&quot;1&quot; style=&quot;&quot;&gt;&lt;b style=&quot;&quot;&gt;&lt;u style=&quot;font-size: 35px;&quot;&gt;Timeline&lt;/u&gt;&lt;/b&gt;&lt;/font&gt;" style="text;html=1;strokeColor=none;fillColor=none;align=center;verticalAlign=middle;whiteSpace=wrap;rounded=0;" vertex="1" parent="1">
          <mxGeometry x="256" y="240" width="314.5" height="50" as="geometry" />
        </mxCell>
        <mxCell id="B2qJIxrfHfIfx7iepTMr-43" style="edgeStyle=orthogonalEdgeStyle;shape=connector;curved=1;rounded=0;orthogonalLoop=1;jettySize=auto;html=1;exitX=0.5;exitY=1;exitDx=0;exitDy=0;entryX=0.5;entryY=0;entryDx=0;entryDy=0;labelBackgroundColor=default;strokeColor=default;strokeWidth=3;align=center;verticalAlign=middle;fontFamily=Tahoma;fontSize=11;fontColor=default;endArrow=classic;" edge="1" parent="1" source="B2qJIxrfHfIfx7iepTMr-37" target="B2qJIxrfHfIfx7iepTMr-39">
          <mxGeometry relative="1" as="geometry" />
        </mxCell>
        <mxCell id="B2qJIxrfHfIfx7iepTMr-37" value="&lt;div style=&quot;&quot;&gt;&lt;font style=&quot;font-size: 35px;&quot;&gt;Launch Date: March 1, 2024&lt;/font&gt;&lt;br&gt;&lt;/div&gt;" style="rounded=0;whiteSpace=wrap;html=1;fontFamily=Helvetica;fontSize=11;fillColor=#FF8000;align=center;strokeWidth=1;strokeColor=#000000;gradientColor=#FFFF99;glass=0;shadow=1;fontColor=default;" vertex="1" parent="1">
          <mxGeometry x="179.87" y="310" width="466.75" height="60" as="geometry" />
        </mxCell>
        <mxCell id="B2qJIxrfHfIfx7iepTMr-46" style="edgeStyle=orthogonalEdgeStyle;shape=connector;curved=1;rounded=0;orthogonalLoop=1;jettySize=auto;html=1;exitX=0.5;exitY=1;exitDx=0;exitDy=0;entryX=0.5;entryY=0;entryDx=0;entryDy=0;labelBackgroundColor=default;strokeColor=default;strokeWidth=3;align=center;verticalAlign=middle;fontFamily=Tahoma;fontSize=11;fontColor=default;endArrow=classic;" edge="1" parent="1" source="B2qJIxrfHfIfx7iepTMr-39" target="B2qJIxrfHfIfx7iepTMr-45">
          <mxGeometry relative="1" as="geometry" />
        </mxCell>
        <mxCell id="B2qJIxrfHfIfx7iepTMr-39" value="&lt;font style=&quot;font-size: 30px;&quot;&gt;Scheduled Launch&lt;/font&gt;" style="text;html=1;strokeColor=#b85450;fillColor=#DF00FF;align=center;verticalAlign=middle;whiteSpace=wrap;rounded=0;gradientColor=#a0fefd;" vertex="1" parent="1">
          <mxGeometry x="274.87" y="480" width="276.75" height="50" as="geometry" />
        </mxCell>
        <mxCell id="B2qJIxrfHfIfx7iepTMr-50" style="edgeStyle=orthogonalEdgeStyle;shape=connector;curved=1;rounded=0;orthogonalLoop=1;jettySize=auto;html=1;exitX=0.5;exitY=1;exitDx=0;exitDy=0;entryX=0.5;entryY=0;entryDx=0;entryDy=0;labelBackgroundColor=default;strokeColor=default;strokeWidth=3;align=center;verticalAlign=middle;fontFamily=Tahoma;fontSize=11;fontColor=default;endArrow=classic;" edge="1" parent="1" source="B2qJIxrfHfIfx7iepTMr-45" target="B2qJIxrfHfIfx7iepTMr-47">
          <mxGeometry relative="1" as="geometry">
            <Array as="points">
              <mxPoint x="413" y="790" />
              <mxPoint x="494" y="790" />
            </Array>
          </mxGeometry>
        </mxCell>
        <mxCell id="B2qJIxrfHfIfx7iepTMr-45" value="&lt;div style=&quot;&quot;&gt;&lt;font style=&quot;font-size: 35px;&quot;&gt;Decentralized Exchange (DEX)&lt;/font&gt;&lt;br&gt;&lt;/div&gt;" style="rounded=0;whiteSpace=wrap;html=1;fontFamily=Helvetica;fontSize=11;fillColor=#FF8000;align=center;strokeWidth=1;strokeColor=#000000;gradientColor=#FFFF99;glass=0;shadow=1;fontColor=default;" vertex="1" parent="1">
          <mxGeometry x="160" y="645" width="506.76" height="80" as="geometry" />
        </mxCell>
        <mxCell id="B2qJIxrfHfIfx7iepTMr-53" style="edgeStyle=orthogonalEdgeStyle;shape=connector;curved=1;rounded=0;orthogonalLoop=1;jettySize=auto;html=1;exitX=0.5;exitY=1;exitDx=0;exitDy=0;entryX=0.5;entryY=0;entryDx=0;entryDy=0;labelBackgroundColor=default;strokeColor=default;strokeWidth=3;align=center;verticalAlign=middle;fontFamily=Tahoma;fontSize=11;fontColor=default;endArrow=classic;" edge="1" parent="1" source="B2qJIxrfHfIfx7iepTMr-47" target="B2qJIxrfHfIfx7iepTMr-52">
          <mxGeometry relative="1" as="geometry" />
        </mxCell>
        <mxCell id="B2qJIxrfHfIfx7iepTMr-47" value="&lt;font style=&quot;font-size: 30px;&quot;&gt;Operates on Ethereum blockchain&lt;/font&gt;" style="text;html=1;strokeColor=#b85450;fillColor=#DF00FF;align=center;verticalAlign=middle;whiteSpace=wrap;rounded=0;gradientColor=#a0fefd;" vertex="1" parent="1">
          <mxGeometry x="256" y="860" width="476.75" height="50" as="geometry" />
        </mxCell>
        <mxCell id="B2qJIxrfHfIfx7iepTMr-54" style="edgeStyle=orthogonalEdgeStyle;shape=connector;curved=1;rounded=0;orthogonalLoop=1;jettySize=auto;html=1;exitX=0.5;exitY=1;exitDx=0;exitDy=0;labelBackgroundColor=default;strokeColor=default;strokeWidth=3;align=center;verticalAlign=middle;fontFamily=Tahoma;fontSize=11;fontColor=default;endArrow=classic;" edge="1" parent="1" source="B2qJIxrfHfIfx7iepTMr-48" target="B2qJIxrfHfIfx7iepTMr-52">
          <mxGeometry relative="1" as="geometry" />
        </mxCell>
        <mxCell id="B2qJIxrfHfIfx7iepTMr-48" value="&lt;font style=&quot;font-size: 30px;&quot;&gt;Audited by Trail of Bits, ABDK, Code4rena&lt;/font&gt;" style="text;html=1;strokeColor=#b85450;fillColor=#DF00FF;align=center;verticalAlign=middle;whiteSpace=wrap;rounded=0;gradientColor=#a0fefd;" vertex="1" parent="1">
          <mxGeometry x="936" y="860" width="610" height="50" as="geometry" />
        </mxCell>
        <mxCell id="B2qJIxrfHfIfx7iepTMr-51" value="&lt;h1 style=&quot;background-image: none; background-position: initial; background-size: initial; background-repeat: initial; background-attachment: initial; background-origin: initial; background-clip: initial; border: none; box-sizing: border-box; margin: 0.25em 0px 0.25rem; padding: 0px; vertical-align: baseline; line-height: 28.8px; text-align: start;&quot; class=&quot;type__headline__xs&quot;&gt;&lt;font style=&quot;font-size: 37px; font-weight: normal;&quot; face=&quot;Verdana&quot;&gt;Salty.IO&lt;/font&gt;&lt;/h1&gt;" style="text;html=1;strokeColor=none;fillColor=none;align=center;verticalAlign=middle;whiteSpace=wrap;rounded=0;" vertex="1" parent="1">
          <mxGeometry x="670" y="490" width="314.5" height="50" as="geometry" />
        </mxCell>
        <mxCell id="B2qJIxrfHfIfx7iepTMr-60" style="edgeStyle=orthogonalEdgeStyle;shape=connector;curved=1;rounded=0;orthogonalLoop=1;jettySize=auto;html=1;exitX=0.5;exitY=1;exitDx=0;exitDy=0;entryX=0.5;entryY=0;entryDx=0;entryDy=0;labelBackgroundColor=default;strokeColor=default;strokeWidth=3;align=center;verticalAlign=middle;fontFamily=Tahoma;fontSize=11;fontColor=default;endArrow=classic;" edge="1" parent="1" source="B2qJIxrfHfIfx7iepTMr-52" target="B2qJIxrfHfIfx7iepTMr-55">
          <mxGeometry relative="1" as="geometry" />
        </mxCell>
        <mxCell id="B2qJIxrfHfIfx7iepTMr-52" value="&lt;div style=&quot;&quot;&gt;&lt;font style=&quot;font-size: 35px;&quot;&gt;Automatic Atomic Arbitrage (AAA)&lt;/font&gt;&lt;br&gt;&lt;/div&gt;" style="rounded=0;whiteSpace=wrap;html=1;fontFamily=Helvetica;fontSize=11;fillColor=#FF8000;align=center;strokeWidth=1;strokeColor=#000000;gradientColor=#FFFF99;glass=0;shadow=1;fontColor=default;" vertex="1" parent="1">
          <mxGeometry x="584.99" y="1040" width="560" height="70" as="geometry" />
        </mxCell>
        <mxCell id="B2qJIxrfHfIfx7iepTMr-62" style="edgeStyle=orthogonalEdgeStyle;shape=connector;curved=1;rounded=0;orthogonalLoop=1;jettySize=auto;html=1;exitX=0.5;exitY=1;exitDx=0;exitDy=0;entryX=0.5;entryY=0;entryDx=0;entryDy=0;labelBackgroundColor=default;strokeColor=default;strokeWidth=3;align=center;verticalAlign=middle;fontFamily=Tahoma;fontSize=11;fontColor=default;endArrow=classic;" edge="1" parent="1" source="B2qJIxrfHfIfx7iepTMr-55" target="B2qJIxrfHfIfx7iepTMr-61">
          <mxGeometry relative="1" as="geometry" />
        </mxCell>
        <mxCell id="B2qJIxrfHfIfx7iepTMr-55" value="&lt;font style=&quot;font-size: 30px;&quot;&gt;Capitalizes on market inefficiencies&lt;/font&gt;" style="text;html=1;strokeColor=#b85450;fillColor=#DF00FF;align=center;verticalAlign=middle;whiteSpace=wrap;rounded=0;gradientColor=#a0fefd;" vertex="1" parent="1">
          <mxGeometry x="613.31" y="1180" width="503.37" height="50" as="geometry" />
        </mxCell>
        <mxCell id="B2qJIxrfHfIfx7iepTMr-56" value="&lt;h1 style=&quot;text-align: left; background-image: none; background-position: initial; background-size: initial; background-repeat: initial; background-attachment: initial; background-origin: initial; background-clip: initial; border: none; box-sizing: border-box; margin: 0.25em 0px 0.25rem; padding: 0px; vertical-align: baseline; line-height: 28.8px;&quot; class=&quot;type__headline__xs&quot;&gt;&lt;font face=&quot;Verdana&quot; style=&quot;font-size: 37px; font-weight: normal;&quot;&gt;Additional Components&lt;/font&gt;&lt;br&gt;&lt;/h1&gt;" style="text;html=1;strokeColor=none;fillColor=none;align=center;verticalAlign=middle;whiteSpace=wrap;rounded=0;" vertex="1" parent="1">
          <mxGeometry x="1460" y="490" width="450" height="50" as="geometry" />
        </mxCell>
        <mxCell id="B2qJIxrfHfIfx7iepTMr-59" style="edgeStyle=orthogonalEdgeStyle;shape=connector;curved=1;rounded=0;orthogonalLoop=1;jettySize=auto;html=1;exitX=0.5;exitY=1;exitDx=0;exitDy=0;entryX=0.5;entryY=0;entryDx=0;entryDy=0;labelBackgroundColor=default;strokeColor=default;strokeWidth=3;align=center;verticalAlign=middle;fontFamily=Tahoma;fontSize=11;fontColor=default;endArrow=classic;" edge="1" parent="1" source="B2qJIxrfHfIfx7iepTMr-57" target="B2qJIxrfHfIfx7iepTMr-48">
          <mxGeometry relative="1" as="geometry" />
        </mxCell>
        <mxCell id="B2qJIxrfHfIfx7iepTMr-57" value="&lt;div style=&quot;&quot;&gt;&lt;font style=&quot;font-size: 33px;&quot;&gt;Fully Audited&lt;/font&gt;&lt;br&gt;&lt;/div&gt;" style="rounded=0;whiteSpace=wrap;html=1;fontFamily=Helvetica;fontSize=11;fillColor=#FF8000;align=center;strokeWidth=1;strokeColor=#000000;gradientColor=#FFFF99;glass=0;shadow=1;fontColor=default;" vertex="1" parent="1">
          <mxGeometry x="1190" y="575" width="300" height="70" as="geometry" />
        </mxCell>
        <mxCell id="B2qJIxrfHfIfx7iepTMr-80" style="edgeStyle=orthogonalEdgeStyle;shape=connector;curved=1;rounded=0;orthogonalLoop=1;jettySize=auto;html=1;exitX=1;exitY=0.5;exitDx=0;exitDy=0;entryX=1;entryY=0.5;entryDx=0;entryDy=0;labelBackgroundColor=default;strokeColor=default;strokeWidth=3;align=center;verticalAlign=middle;fontFamily=Tahoma;fontSize=11;fontColor=default;endArrow=classic;" edge="1" parent="1" source="B2qJIxrfHfIfx7iepTMr-58" target="B2qJIxrfHfIfx7iepTMr-77">
          <mxGeometry relative="1" as="geometry" />
        </mxCell>
        <mxCell id="B2qJIxrfHfIfx7iepTMr-58" value="&lt;div style=&quot;&quot;&gt;&lt;font style=&quot;font-size: 33px;&quot;&gt;WBTC/WETH liquidity pool as collateral&lt;/font&gt;&lt;br&gt;&lt;/div&gt;" style="rounded=0;whiteSpace=wrap;html=1;fontFamily=Helvetica;fontSize=11;fillColor=#FF8000;align=center;strokeWidth=1;strokeColor=#000000;gradientColor=#FFFF99;glass=0;shadow=1;fontColor=default;" vertex="1" parent="1">
          <mxGeometry x="1640" y="575" width="700" height="70" as="geometry" />
        </mxCell>
        <mxCell id="B2qJIxrfHfIfx7iepTMr-64" style="edgeStyle=orthogonalEdgeStyle;shape=connector;curved=1;rounded=0;orthogonalLoop=1;jettySize=auto;html=1;exitX=0.5;exitY=1;exitDx=0;exitDy=0;entryX=0.5;entryY=0;entryDx=0;entryDy=0;labelBackgroundColor=default;strokeColor=default;strokeWidth=3;align=center;verticalAlign=middle;fontFamily=Tahoma;fontSize=11;fontColor=default;endArrow=classic;" edge="1" parent="1" source="B2qJIxrfHfIfx7iepTMr-61" target="B2qJIxrfHfIfx7iepTMr-63">
          <mxGeometry relative="1" as="geometry" />
        </mxCell>
        <mxCell id="B2qJIxrfHfIfx7iepTMr-61" value="&lt;div style=&quot;&quot;&gt;&lt;font style=&quot;font-size: 35px;&quot;&gt;Yield Generation and Zero Fees&lt;/font&gt;&lt;br&gt;&lt;/div&gt;" style="rounded=0;whiteSpace=wrap;html=1;fontFamily=Helvetica;fontSize=11;fillColor=#FF8000;align=center;strokeWidth=1;strokeColor=#000000;gradientColor=#FFFF99;glass=0;shadow=1;fontColor=default;" vertex="1" parent="1">
          <mxGeometry x="598.3399999999999" y="1300" width="533.32" height="70" as="geometry" />
        </mxCell>
        <mxCell id="B2qJIxrfHfIfx7iepTMr-66" style="edgeStyle=orthogonalEdgeStyle;shape=connector;curved=1;rounded=0;orthogonalLoop=1;jettySize=auto;html=1;exitX=0.5;exitY=1;exitDx=0;exitDy=0;entryX=0.5;entryY=0;entryDx=0;entryDy=0;labelBackgroundColor=default;strokeColor=default;strokeWidth=3;align=center;verticalAlign=middle;fontFamily=Tahoma;fontSize=11;fontColor=default;endArrow=classic;" edge="1" parent="1" source="B2qJIxrfHfIfx7iepTMr-63" target="B2qJIxrfHfIfx7iepTMr-65">
          <mxGeometry relative="1" as="geometry" />
        </mxCell>
        <mxCell id="B2qJIxrfHfIfx7iepTMr-63" value="&lt;font style=&quot;font-size: 30px;&quot;&gt;Profits used to eliminate fees&lt;/font&gt;" style="text;html=1;strokeColor=#b85450;fillColor=#DF00FF;align=center;verticalAlign=middle;whiteSpace=wrap;rounded=0;gradientColor=#a0fefd;" vertex="1" parent="1">
          <mxGeometry x="613.3" y="1440" width="503.37" height="50" as="geometry" />
        </mxCell>
        <mxCell id="B2qJIxrfHfIfx7iepTMr-68" style="edgeStyle=orthogonalEdgeStyle;shape=connector;curved=1;rounded=0;orthogonalLoop=1;jettySize=auto;html=1;exitX=0.5;exitY=1;exitDx=0;exitDy=0;entryX=0.5;entryY=0;entryDx=0;entryDy=0;labelBackgroundColor=default;strokeColor=default;strokeWidth=3;align=center;verticalAlign=middle;fontFamily=Tahoma;fontSize=11;fontColor=default;endArrow=classic;" edge="1" parent="1" source="B2qJIxrfHfIfx7iepTMr-65" target="B2qJIxrfHfIfx7iepTMr-67">
          <mxGeometry relative="1" as="geometry" />
        </mxCell>
        <mxCell id="B2qJIxrfHfIfx7iepTMr-65" value="&lt;div style=&quot;&quot;&gt;&lt;font style=&quot;font-size: 35px;&quot;&gt;Protocol Owned Liquidity (POL&lt;/font&gt;&lt;br&gt;&lt;/div&gt;" style="rounded=0;whiteSpace=wrap;html=1;fontFamily=Helvetica;fontSize=11;fillColor=#FF8000;align=center;strokeWidth=1;strokeColor=#000000;gradientColor=#FFFF99;glass=0;shadow=1;fontColor=default;" vertex="1" parent="1">
          <mxGeometry x="598.3399999999999" y="1570" width="533.32" height="70" as="geometry" />
        </mxCell>
        <mxCell id="B2qJIxrfHfIfx7iepTMr-70" style="edgeStyle=orthogonalEdgeStyle;shape=connector;curved=1;rounded=0;orthogonalLoop=1;jettySize=auto;html=1;exitX=0.5;exitY=1;exitDx=0;exitDy=0;entryX=0.5;entryY=0;entryDx=0;entryDy=0;labelBackgroundColor=default;strokeColor=default;strokeWidth=3;align=center;verticalAlign=middle;fontFamily=Tahoma;fontSize=11;fontColor=default;endArrow=classic;" edge="1" parent="1" source="B2qJIxrfHfIfx7iepTMr-67" target="B2qJIxrfHfIfx7iepTMr-69">
          <mxGeometry relative="1" as="geometry" />
        </mxCell>
        <mxCell id="B2qJIxrfHfIfx7iepTMr-67" value="&lt;font style=&quot;font-size: 30px;&quot;&gt;Profits distributed to liquidity providers and SALT stakers&lt;/font&gt;" style="text;html=1;strokeColor=#b85450;fillColor=#DF00FF;align=center;verticalAlign=middle;whiteSpace=wrap;rounded=0;gradientColor=#a0fefd;" vertex="1" parent="1">
          <mxGeometry x="471.6599999999999" y="1720" width="786.69" height="50" as="geometry" />
        </mxCell>
        <mxCell id="B2qJIxrfHfIfx7iepTMr-72" style="edgeStyle=orthogonalEdgeStyle;shape=connector;curved=1;rounded=0;orthogonalLoop=1;jettySize=auto;html=1;exitX=0.5;exitY=1;exitDx=0;exitDy=0;entryX=0.5;entryY=0;entryDx=0;entryDy=0;labelBackgroundColor=default;strokeColor=default;strokeWidth=3;align=center;verticalAlign=middle;fontFamily=Tahoma;fontSize=11;fontColor=default;endArrow=classic;" edge="1" parent="1" source="B2qJIxrfHfIfx7iepTMr-69" target="B2qJIxrfHfIfx7iepTMr-71">
          <mxGeometry relative="1" as="geometry" />
        </mxCell>
        <mxCell id="B2qJIxrfHfIfx7iepTMr-69" value="&lt;div style=&quot;&quot;&gt;&lt;font style=&quot;font-size: 35px;&quot;&gt;SALT Token&lt;/font&gt;&lt;br&gt;&lt;/div&gt;" style="rounded=0;whiteSpace=wrap;html=1;fontFamily=Helvetica;fontSize=11;fillColor=#FF8000;align=center;strokeWidth=1;strokeColor=#000000;gradientColor=#FFFF99;glass=0;shadow=1;fontColor=default;" vertex="1" parent="1">
          <mxGeometry x="734.18" y="1850" width="261.66" height="70" as="geometry" />
        </mxCell>
        <mxCell id="B2qJIxrfHfIfx7iepTMr-74" style="edgeStyle=orthogonalEdgeStyle;shape=connector;curved=1;rounded=0;orthogonalLoop=1;jettySize=auto;html=1;exitX=0.5;exitY=1;exitDx=0;exitDy=0;entryX=0.5;entryY=0;entryDx=0;entryDy=0;labelBackgroundColor=default;strokeColor=default;strokeWidth=3;align=center;verticalAlign=middle;fontFamily=Tahoma;fontSize=11;fontColor=default;endArrow=classic;" edge="1" parent="1" source="B2qJIxrfHfIfx7iepTMr-71" target="B2qJIxrfHfIfx7iepTMr-73">
          <mxGeometry relative="1" as="geometry" />
        </mxCell>
        <mxCell id="B2qJIxrfHfIfx7iepTMr-71" value="&lt;font style=&quot;font-size: 30px;&quot;&gt;Native ERC20 token&lt;/font&gt;" style="text;html=1;strokeColor=#b85450;fillColor=#DF00FF;align=center;verticalAlign=middle;whiteSpace=wrap;rounded=0;gradientColor=#a0fefd;movable=0;resizable=0;rotatable=0;deletable=0;editable=0;locked=1;connectable=0;" vertex="1" parent="1">
          <mxGeometry x="710.82" y="2000" width="308.34" height="50" as="geometry" />
        </mxCell>
        <mxCell id="B2qJIxrfHfIfx7iepTMr-76" style="edgeStyle=orthogonalEdgeStyle;shape=connector;curved=1;rounded=0;orthogonalLoop=1;jettySize=auto;html=1;exitX=0.5;exitY=1;exitDx=0;exitDy=0;entryX=0.5;entryY=0;entryDx=0;entryDy=0;labelBackgroundColor=default;strokeColor=default;strokeWidth=3;align=center;verticalAlign=middle;fontFamily=Tahoma;fontSize=11;fontColor=default;endArrow=classic;" edge="1" parent="1" source="B2qJIxrfHfIfx7iepTMr-73" target="B2qJIxrfHfIfx7iepTMr-75">
          <mxGeometry relative="1" as="geometry" />
        </mxCell>
        <mxCell id="B2qJIxrfHfIfx7iepTMr-73" value="&lt;div style=&quot;&quot;&gt;&lt;font style=&quot;font-size: 35px;&quot;&gt;USDS Stablecoin&lt;/font&gt;&lt;br&gt;&lt;/div&gt;" style="rounded=0;whiteSpace=wrap;html=1;fontFamily=Helvetica;fontSize=11;fillColor=#FF8000;align=center;strokeWidth=1;strokeColor=#000000;gradientColor=#FFFF99;glass=0;shadow=1;fontColor=default;" vertex="1" parent="1">
          <mxGeometry x="704.99" y="2130" width="320" height="70" as="geometry" />
        </mxCell>
        <mxCell id="B2qJIxrfHfIfx7iepTMr-79" style="edgeStyle=orthogonalEdgeStyle;shape=connector;curved=1;rounded=0;orthogonalLoop=1;jettySize=auto;html=1;exitX=1;exitY=0.5;exitDx=0;exitDy=0;entryX=0.5;entryY=1;entryDx=0;entryDy=0;labelBackgroundColor=default;strokeColor=default;strokeWidth=3;align=center;verticalAlign=middle;fontFamily=Tahoma;fontSize=11;fontColor=default;endArrow=classic;" edge="1" parent="1" source="B2qJIxrfHfIfx7iepTMr-75" target="B2qJIxrfHfIfx7iepTMr-77">
          <mxGeometry relative="1" as="geometry" />
        </mxCell>
        <mxCell id="B2qJIxrfHfIfx7iepTMr-75" value="&lt;font style=&quot;font-size: 30px;&quot;&gt;Overcollateralized ERC20 stablecoin&lt;/font&gt;" style="text;html=1;strokeColor=#b85450;fillColor=#DF00FF;align=center;verticalAlign=middle;whiteSpace=wrap;rounded=0;gradientColor=#a0fefd;" vertex="1" parent="1">
          <mxGeometry x="595.01" y="2280" width="540" height="50" as="geometry" />
        </mxCell>
        <mxCell id="B2qJIxrfHfIfx7iepTMr-77" value="&lt;font style=&quot;font-size: 30px;&quot;&gt;Stability for USDS Stablecoin&lt;/font&gt;" style="text;html=1;strokeColor=#b85450;fillColor=#DF00FF;align=center;verticalAlign=middle;whiteSpace=wrap;rounded=0;gradientColor=#a0fefd;" vertex="1" parent="1">
          <mxGeometry x="1470" y="1580" width="540" height="50" as="geometry" />
        </mxCell>
        <mxCell id="B2qJIxrfHfIfx7iepTMr-82" value="&lt;div style=&quot;&quot;&gt;&lt;div style=&quot;line-height: 19px;&quot;&gt;&lt;img alt=&quot;Salty.IO&quot; src=&quot;https://code4rena.com/_next/image?url=https%3A%2F%2Fstorage.googleapis.com%2Fcdn-c4-uploads-v0%2Fuploads%2FTEwB4jYYdhM.0&amp;amp;w=256&amp;amp;q=75&quot;&gt;&lt;br&gt;&lt;/div&gt;&lt;/div&gt;" style="text;html=1;strokeColor=none;fillColor=none;align=center;verticalAlign=middle;whiteSpace=wrap;rounded=0;" vertex="1" parent="1">
          <mxGeometry x="1970" y="145" width="221" height="240" as="geometry" />
        </mxCell>
        <mxCell id="B2qJIxrfHfIfx7iepTMr-83" value="&lt;div style=&quot;&quot;&gt;&lt;div style=&quot;line-height: 19px;&quot;&gt;&lt;img alt=&quot;ERC-20: building a fungible token smart contract | by Lucas Vieira |  Coinmonks | Medium&quot; src=&quot;https://encrypted-tbn0.gstatic.com/images?q=tbn:ANd9GcRp3qn0cePR7owLn-mHywwut4FgwWrm4cqcOhABYuqMOEb-WdpmeKPSTJf_daJZezrlG6E&amp;amp;usqp=CAU&quot;&gt;&lt;br&gt;&lt;/div&gt;&lt;/div&gt;" style="text;html=1;strokeColor=none;fillColor=none;align=center;verticalAlign=middle;whiteSpace=wrap;rounded=0;" vertex="1" parent="1">
          <mxGeometry x="270" y="1942.5" width="335.01" height="165" as="geometry" />
        </mxCell>
      </root>
    </mxGraphModel>
  </diagram>
</mxfile>
